<svg xmlns="http://www.w3.org/2000/svg" viewBox="0 0 1080 1080" width="1080" height="1080">
  <defs>
    <linearGradient id="bg" x1="0%" y1="0%" x2="100%" y2="100%"><stop offset="0%" stop-color="#080c14"/><stop offset="100%" stop-color="#0e1420"/></linearGradient>
    <linearGradient id="g" x1="0%" y1="0%" x2="100%" y2="100%"><stop offset="0%" stop-color="#34d399"/><stop offset="50%" stop-color="#06b6d4"/><stop offset="100%" stop-color="#0d9488"/></linearGradient>
  </defs>
  <rect width="1080" height="1080" fill="url(#bg)"/>
  <g opacity="0.04" stroke="#06b6d4" stroke-width=".5"><line x1="0" y1="270" x2="1080" y2="270"/><line x1="0" y1="540" x2="1080" y2="540"/><line x1="0" y1="810" x2="1080" y2="810"/></g>
  <!-- AI chip icon -->
  <g transform="translate(540,300)">
    <rect x="-50" y="-50" width="100" height="100" rx="16" fill="none" stroke="url(#g)" stroke-width="3"/>
    <text x="0" y="15" text-anchor="middle" font-family="'Helvetica Neue',sans-serif" font-size="40" font-weight="700" fill="url(#g)">AI</text>
    <line x1="-30" y1="-50" x2="-30" y2="-65" stroke="#06b6d4" stroke-width="2"/><line x1="0" y1="-50" x2="0" y2="-65" stroke="#06b6d4" stroke-width="2"/><line x1="30" y1="-50" x2="30" y2="-65" stroke="#06b6d4" stroke-width="2"/>
    <line x1="-30" y1="50" x2="-30" y2="65" stroke="#06b6d4" stroke-width="2"/><line x1="0" y1="50" x2="0" y2="65" stroke="#06b6d4" stroke-width="2"/><line x1="30" y1="50" x2="30" y2="65" stroke="#06b6d4" stroke-width="2"/>
    <line x1="-50" y1="-20" x2="-65" y2="-20" stroke="#06b6d4" stroke-width="2"/><line x1="-50" y1="20" x2="-65" y2="20" stroke="#06b6d4" stroke-width="2"/>
    <line x1="50" y1="-20" x2="65" y2="-20" stroke="#06b6d4" stroke-width="2"/><line x1="50" y1="20" x2="65" y2="20" stroke="#06b6d4" stroke-width="2"/>
  </g>
  <text x="540" y="480" text-anchor="middle" font-family="'Helvetica Neue',sans-serif" font-size="36" font-weight="300" fill="#fff" letter-spacing="3">YAPAY ZEKA</text>
  <text x="540" y="530" text-anchor="middle" font-family="'Helvetica Neue',sans-serif" font-size="36" font-weight="300" fill="#fff" letter-spacing="3">ÇÖZÜMLERİ</text>
  <text x="540" y="620" text-anchor="middle" font-family="'Helvetica Neue',sans-serif" font-size="16" fill="#94a3b8" letter-spacing="1">Özel model geliştirme</text>
  <text x="540" y="655" text-anchor="middle" font-family="'Helvetica Neue',sans-serif" font-size="16" fill="#94a3b8" letter-spacing="1">Entegrasyon ve otomasyon</text>
  <text x="540" y="690" text-anchor="middle" font-family="'Helvetica Neue',sans-serif" font-size="16" fill="#94a3b8" letter-spacing="1">Danışmanlık ve strateji</text>
  <g opacity="0.15" stroke="#06b6d4" stroke-width="1"><polyline points="40,40 40,70 70,70" fill="none"/><polyline points="1040,40 1040,70 1010,70" fill="none"/><polyline points="40,1040 40,1010 70,1010" fill="none"/><polyline points="1040,1040 1040,1010 1010,1010" fill="none"/></g>
  <text x="540" y="980" text-anchor="middle" font-family="'Helvetica Neue',sans-serif" font-size="20" fill="url(#g)" letter-spacing="4">ev@itec</text>
  <text x="540" y="1020" text-anchor="middle" font-family="'Helvetica Neue',sans-serif" font-size="13" fill="#475569" letter-spacing="3">AS a Consult</text>
</svg>